<?xml version="1.0" encoding="UTF-8"?>
<svg xmlns="http://www.w3.org/2000/svg" xmlns:xlink="http://www.w3.org/1999/xlink" width="192pt" height="192pt" viewBox="0 0 192 192" version="1.1">
<g id="surface1">
<path style=" stroke:none;fill-rule:nonzero;fill:rgb(100%,61.568627%,12.941176%);fill-opacity:1;" d="M 43.5 49.125 L 21 49.125 C 17.894531 49.125 15.375 46.605469 15.375 43.5 L 15.375 28.5 C 15.375 21.261719 21.261719 15.375 28.5 15.375 L 36 15.375 C 43.238281 15.375 49.125 21.261719 49.125 28.5 L 49.125 43.5 C 49.125 46.605469 46.605469 49.125 43.5 49.125 Z M 43.5 49.125 "/>
<path style=" stroke:none;fill-rule:nonzero;fill:rgb(100%,87.058824%,27.45098%);fill-opacity:1;" d="M 171.375 176.625 L 20.625 176.625 C 9.253906 176.625 0 167.371094 0 156 L 0 58.5 C 0 47.128906 9.253906 37.875 20.625 37.875 L 58.195312 37.875 L 61.847656 26.914062 C 64.148438 20.011719 70.585938 15.375 77.859375 15.375 L 114.140625 15.375 C 121.414062 15.375 127.851562 20.011719 130.152344 26.914062 L 133.804688 37.875 L 171.375 37.875 C 182.746094 37.875 192 47.128906 192 58.5 L 192 156 C 192 167.371094 182.746094 176.625 171.375 176.625 Z M 171.375 176.625 "/>
<path style=" stroke:none;fill-rule:nonzero;fill:rgb(100%,61.568627%,12.941176%);fill-opacity:1;" d="M 171.375 37.875 L 133.804688 37.875 L 130.152344 26.914062 C 127.851562 20.011719 121.414062 15.375 114.140625 15.375 L 96 15.375 L 96 176.625 L 171.375 176.625 C 182.746094 176.625 192 167.371094 192 156 L 192 58.5 C 192 47.128906 182.746094 37.875 171.375 37.875 Z M 171.375 37.875 "/>
<path style=" stroke:none;fill-rule:nonzero;fill:rgb(0%,25.882353%,60.784314%);fill-opacity:1;" d="M 96 161.625 C 66.019531 161.625 41.625 137.230469 41.625 107.25 C 41.625 77.269531 66.019531 52.875 96 52.875 C 125.980469 52.875 150.375 77.269531 150.375 107.25 C 150.375 137.230469 125.980469 161.625 96 161.625 Z M 96 161.625 "/>
<path style=" stroke:none;fill-rule:nonzero;fill:rgb(0%,20%,47.843137%);fill-opacity:1;" d="M 150.375 107.25 C 150.375 77.269531 125.980469 52.875 96 52.875 L 96 161.625 C 125.980469 161.625 150.375 137.230469 150.375 107.25 Z M 150.375 107.25 "/>
<path style=" stroke:none;fill-rule:nonzero;fill:rgb(22.745098%,68.627451%,100%);fill-opacity:1;" d="M 96 148.5 C 73.253906 148.5 54.75 129.996094 54.75 107.25 C 54.75 84.503906 73.253906 66 96 66 C 118.746094 66 137.25 84.503906 137.25 107.25 C 137.25 129.996094 118.746094 148.5 96 148.5 Z M 96 148.5 "/>
<path style=" stroke:none;fill-rule:nonzero;fill:rgb(0%,54.117647%,87.45098%);fill-opacity:1;" d="M 137.25 107.25 C 137.25 84.503906 118.746094 66 96 66 L 96 148.5 C 118.746094 148.5 137.25 129.996094 137.25 107.25 Z M 137.25 107.25 "/>
<path style=" stroke:none;fill-rule:nonzero;fill:rgb(92.156863%,88.235294%,86.27451%);fill-opacity:1;" d="M 172.875 66 C 172.875 69.105469 170.355469 71.625 167.25 71.625 C 164.144531 71.625 161.625 69.105469 161.625 66 C 161.625 62.894531 164.144531 60.375 167.25 60.375 C 170.355469 60.375 172.875 62.894531 172.875 66 Z M 172.875 66 "/>
<path style=" stroke:none;fill-rule:nonzero;fill:rgb(96.078431%,94.117647%,92.156863%);fill-opacity:1;" d="M 32.25 71.625 L 21 71.625 C 17.894531 71.625 15.375 69.105469 15.375 66 C 15.375 62.894531 17.894531 60.375 21 60.375 L 32.25 60.375 C 35.355469 60.375 37.875 62.894531 37.875 66 C 37.875 69.105469 35.355469 71.625 32.25 71.625 Z M 32.25 71.625 "/>
</g>
</svg>
